<?xml version="1.0" encoding="UTF-8" standalone="no"?>
<!DOCTYPE svg PUBLIC "-//W3C//DTD SVG 1.1//EN"
 "http://www.w3.org/Graphics/SVG/1.1/DTD/svg11.dtd">
<!-- Generated by graphviz version 2.40.1 (20161225.0304)
 -->
<!-- Title: G Pages: 1 -->
<svg width="603pt" height="162pt"
 viewBox="0.00 0.00 603.00 162.00" xmlns="http://www.w3.org/2000/svg" xmlns:xlink="http://www.w3.org/1999/xlink">
<g id="graph0" class="graph" transform="scale(1 1) rotate(0) translate(4 158)">
<title>G</title>
<polygon fill="#ffffff" stroke="transparent" points="-4,4 -4,-158 599,-158 599,4 -4,4"/>
<!-- json -->
<g id="node1" class="node">
<title>json</title>
<polygon fill="none" stroke="#000000" points="0,-107.5 0,-153.5 595,-153.5 595,-107.5 0,-107.5"/>
<text text-anchor="middle" x="13" y="-138.3" font-family="Times,serif" font-size="14.00" fill="#000000">{</text>
<polyline fill="none" stroke="#000000" points="0,-130.5 26,-130.5 "/>
<text text-anchor="middle" x="13" y="-115.3" font-family="Times,serif" font-size="14.00" fill="#000000">?</text>
<polyline fill="none" stroke="#000000" points="26,-107.5 26,-153.5 "/>
<text text-anchor="middle" x="38" y="-138.3" font-family="Times,serif" font-size="14.00" fill="#000000">&quot;</text>
<polyline fill="none" stroke="#000000" points="26,-130.5 50,-130.5 "/>
<text text-anchor="middle" x="38" y="-115.3" font-family="Times,serif" font-size="14.00" fill="#000000">?</text>
<polyline fill="none" stroke="#000000" points="50,-107.5 50,-153.5 "/>
<text text-anchor="middle" x="63" y="-138.3" font-family="Times,serif" font-size="14.00" fill="#000000">n</text>
<polyline fill="none" stroke="#000000" points="50,-130.5 76,-130.5 "/>
<text text-anchor="middle" x="63" y="-115.3" font-family="Times,serif" font-size="14.00" fill="#000000">n</text>
<polyline fill="none" stroke="#000000" points="76,-107.5 76,-153.5 "/>
<text text-anchor="middle" x="88.5" y="-138.3" font-family="Times,serif" font-size="14.00" fill="#000000">a</text>
<polyline fill="none" stroke="#000000" points="76,-130.5 101,-130.5 "/>
<text text-anchor="middle" x="88.5" y="-115.3" font-family="Times,serif" font-size="14.00" fill="#000000">a</text>
<polyline fill="none" stroke="#000000" points="101,-107.5 101,-153.5 "/>
<text text-anchor="middle" x="116" y="-138.3" font-family="Times,serif" font-size="14.00" fill="#000000">m</text>
<polyline fill="none" stroke="#000000" points="101,-130.5 131,-130.5 "/>
<text text-anchor="middle" x="116" y="-115.3" font-family="Times,serif" font-size="14.00" fill="#000000">m</text>
<polyline fill="none" stroke="#000000" points="131,-107.5 131,-153.5 "/>
<text text-anchor="middle" x="143.5" y="-138.3" font-family="Times,serif" font-size="14.00" fill="#000000">e</text>
<polyline fill="none" stroke="#000000" points="131,-130.5 156,-130.5 "/>
<text text-anchor="middle" x="143.5" y="-115.3" font-family="Times,serif" font-size="14.00" fill="#000000">e</text>
<polyline fill="none" stroke="#000000" points="156,-107.5 156,-153.5 "/>
<text text-anchor="middle" x="171" y="-138.3" font-family="Times,serif" font-size="14.00" fill="#000000">&quot;</text>
<polyline fill="none" stroke="#000000" points="156,-130.5 186,-130.5 "/>
<text text-anchor="middle" x="171" y="-115.3" font-family="Times,serif" font-size="14.00" fill="#000000">\0</text>
<polyline fill="none" stroke="#000000" points="186,-107.5 186,-153.5 "/>
<text text-anchor="middle" x="198" y="-138.3" font-family="Times,serif" font-size="14.00" fill="#000000">:</text>
<polyline fill="none" stroke="#000000" points="186,-130.5 210,-130.5 "/>
<text text-anchor="middle" x="198" y="-115.3" font-family="Times,serif" font-size="14.00" fill="#000000">?</text>
<polyline fill="none" stroke="#000000" points="210,-107.5 210,-153.5 "/>
<text text-anchor="middle" x="222" y="-138.3" font-family="Times,serif" font-size="14.00" fill="#000000">&quot;</text>
<polyline fill="none" stroke="#000000" points="210,-130.5 234,-130.5 "/>
<text text-anchor="middle" x="222" y="-115.3" font-family="Times,serif" font-size="14.00" fill="#000000">?</text>
<polyline fill="none" stroke="#000000" points="234,-107.5 234,-153.5 "/>
<text text-anchor="middle" x="245.5" y="-138.3" font-family="Times,serif" font-size="14.00" fill="#000000">r</text>
<polyline fill="none" stroke="#000000" points="234,-130.5 257,-130.5 "/>
<text text-anchor="middle" x="245.5" y="-115.3" font-family="Times,serif" font-size="14.00" fill="#000000">r</text>
<polyline fill="none" stroke="#000000" points="257,-107.5 257,-153.5 "/>
<text text-anchor="middle" x="269.5" y="-138.3" font-family="Times,serif" font-size="14.00" fill="#000000">o</text>
<polyline fill="none" stroke="#000000" points="257,-130.5 282,-130.5 "/>
<text text-anchor="middle" x="269.5" y="-115.3" font-family="Times,serif" font-size="14.00" fill="#000000">o</text>
<polyline fill="none" stroke="#000000" points="282,-107.5 282,-153.5 "/>
<text text-anchor="middle" x="294.5" y="-138.3" font-family="Times,serif" font-size="14.00" fill="#000000">o</text>
<polyline fill="none" stroke="#000000" points="282,-130.5 307,-130.5 "/>
<text text-anchor="middle" x="294.5" y="-115.3" font-family="Times,serif" font-size="14.00" fill="#000000">o</text>
<polyline fill="none" stroke="#000000" points="307,-107.5 307,-153.5 "/>
<text text-anchor="middle" x="318.5" y="-138.3" font-family="Times,serif" font-size="14.00" fill="#000000">t</text>
<polyline fill="none" stroke="#000000" points="307,-130.5 330,-130.5 "/>
<text text-anchor="middle" x="318.5" y="-115.3" font-family="Times,serif" font-size="14.00" fill="#000000">t</text>
<polyline fill="none" stroke="#000000" points="330,-107.5 330,-153.5 "/>
<text text-anchor="middle" x="345" y="-138.3" font-family="Times,serif" font-size="14.00" fill="#000000">&quot;</text>
<polyline fill="none" stroke="#000000" points="330,-130.5 360,-130.5 "/>
<text text-anchor="middle" x="345" y="-115.3" font-family="Times,serif" font-size="14.00" fill="#000000">\0</text>
<polyline fill="none" stroke="#000000" points="360,-107.5 360,-153.5 "/>
<text text-anchor="middle" x="372" y="-138.3" font-family="Times,serif" font-size="14.00" fill="#000000">,</text>
<polyline fill="none" stroke="#000000" points="360,-130.5 384,-130.5 "/>
<text text-anchor="middle" x="372" y="-115.3" font-family="Times,serif" font-size="14.00" fill="#000000">?</text>
<polyline fill="none" stroke="#000000" points="384,-107.5 384,-153.5 "/>
<text text-anchor="middle" x="396" y="-138.3" font-family="Times,serif" font-size="14.00" fill="#000000">&quot;</text>
<polyline fill="none" stroke="#000000" points="384,-130.5 408,-130.5 "/>
<text text-anchor="middle" x="396" y="-115.3" font-family="Times,serif" font-size="14.00" fill="#000000">?</text>
<polyline fill="none" stroke="#000000" points="408,-107.5 408,-153.5 "/>
<text text-anchor="middle" x="418.5" y="-138.3" font-family="Times,serif" font-size="14.00" fill="#000000">i</text>
<polyline fill="none" stroke="#000000" points="408,-130.5 429,-130.5 "/>
<text text-anchor="middle" x="418.5" y="-115.3" font-family="Times,serif" font-size="14.00" fill="#000000">i</text>
<polyline fill="none" stroke="#000000" points="429,-107.5 429,-153.5 "/>
<text text-anchor="middle" x="442" y="-138.3" font-family="Times,serif" font-size="14.00" fill="#000000">d</text>
<polyline fill="none" stroke="#000000" points="429,-130.5 455,-130.5 "/>
<text text-anchor="middle" x="442" y="-115.3" font-family="Times,serif" font-size="14.00" fill="#000000">d</text>
<polyline fill="none" stroke="#000000" points="455,-107.5 455,-153.5 "/>
<text text-anchor="middle" x="470" y="-138.3" font-family="Times,serif" font-size="14.00" fill="#000000">&quot;</text>
<polyline fill="none" stroke="#000000" points="455,-130.5 485,-130.5 "/>
<text text-anchor="middle" x="470" y="-115.3" font-family="Times,serif" font-size="14.00" fill="#000000">\0</text>
<polyline fill="none" stroke="#000000" points="485,-107.5 485,-153.5 "/>
<text text-anchor="middle" x="497" y="-138.3" font-family="Times,serif" font-size="14.00" fill="#000000">:</text>
<polyline fill="none" stroke="#000000" points="485,-130.5 509,-130.5 "/>
<text text-anchor="middle" x="497" y="-115.3" font-family="Times,serif" font-size="14.00" fill="#000000">?</text>
<polyline fill="none" stroke="#000000" points="509,-107.5 509,-153.5 "/>
<text text-anchor="middle" x="522" y="-138.3" font-family="Times,serif" font-size="14.00" fill="#000000">0</text>
<polyline fill="none" stroke="#000000" points="509,-130.5 535,-130.5 "/>
<text text-anchor="middle" x="522" y="-115.3" font-family="Times,serif" font-size="14.00" fill="#000000">0</text>
<polyline fill="none" stroke="#000000" points="535,-107.5 535,-153.5 "/>
<text text-anchor="middle" x="550" y="-138.3" font-family="Times,serif" font-size="14.00" fill="#000000">}</text>
<polyline fill="none" stroke="#000000" points="535,-130.5 565,-130.5 "/>
<text text-anchor="middle" x="550" y="-115.3" font-family="Times,serif" font-size="14.00" fill="#000000">\0</text>
<polyline fill="none" stroke="#000000" points="565,-107.5 565,-153.5 "/>
<text text-anchor="middle" x="580" y="-138.3" font-family="Times,serif" font-size="14.00" fill="#000000">\0</text>
<polyline fill="none" stroke="#000000" points="565,-130.5 595,-130.5 "/>
<text text-anchor="middle" x="580" y="-115.3" font-family="Times,serif" font-size="14.00" fill="#000000">?</text>
</g>
<!-- token -->
<g id="node2" class="node">
<title>token</title>
<polygon fill="none" stroke="#000000" points="100.5,-33.5 100.5,-69.5 516.5,-69.5 516.5,-33.5 100.5,-33.5"/>
<text text-anchor="middle" x="139" y="-47.8" font-family="Times,serif" font-size="14.00" fill="#000000">OBJECT</text>
<polyline fill="none" stroke="#000000" points="177.5,-33.5 177.5,-69.5 "/>
<text text-anchor="middle" x="216" y="-47.8" font-family="Times,serif" font-size="14.00" fill="#000000">STRING</text>
<polyline fill="none" stroke="#000000" points="254.5,-33.5 254.5,-69.5 "/>
<text text-anchor="middle" x="293" y="-47.8" font-family="Times,serif" font-size="14.00" fill="#000000">STRING</text>
<polyline fill="none" stroke="#000000" points="331.5,-33.5 331.5,-69.5 "/>
<text text-anchor="middle" x="370" y="-47.8" font-family="Times,serif" font-size="14.00" fill="#000000">STRING</text>
<polyline fill="none" stroke="#000000" points="408.5,-33.5 408.5,-69.5 "/>
<text text-anchor="middle" x="452" y="-47.8" font-family="Times,serif" font-size="14.00" fill="#000000">NUMBER</text>
<polyline fill="none" stroke="#000000" points="495.5,-33.5 495.5,-69.5 "/>
<text text-anchor="middle" x="506" y="-47.8" font-family="Times,serif" font-size="14.00" fill="#000000"> </text>
</g>
<!-- token&#45;&gt;json -->
<g id="edge1" class="edge">
<title>token:name&#45;&gt;json:name</title>
<path fill="none" stroke="#000000" d="M215.5,-69.5C215.5,-135.7342 78.7768,-48.0897 63.8227,-97.4935"/>
<polygon fill="#000000" stroke="#000000" points="60.3407,-97.1276 62.5,-107.5 67.2803,-98.0449 60.3407,-97.1276"/>
</g>
<!-- token&#45;&gt;json -->
<g id="edge2" class="edge">
<title>token:root&#45;&gt;json:root</title>
<path fill="none" stroke="#000000" d="M292.5,-69.5C292.5,-92.165 259.04,-84.5119 248.5838,-97.7026"/>
<polygon fill="#000000" stroke="#000000" points="245.1639,-96.9105 245.5,-107.5 251.8409,-99.0122 245.1639,-96.9105"/>
</g>
<!-- token&#45;&gt;json -->
<g id="edge3" class="edge">
<title>token:id&#45;&gt;json:id</title>
<path fill="none" stroke="#000000" d="M370.5,-69.5C370.5,-92.4578 404.6719,-84.3564 415.3506,-97.6082"/>
<polygon fill="#000000" stroke="#000000" points="412.1311,-99.0332 418.5,-107.5 418.8012,-96.9094 412.1311,-99.0332"/>
</g>
<!-- token&#45;&gt;json -->
<g id="edge4" class="edge">
<title>token:0&#45;&gt;json:0</title>
<path fill="none" stroke="#000000" d="M452.5,-69.5C452.5,-100.7513 507.0551,-78.8511 519.8414,-97.645"/>
<polygon fill="#000000" stroke="#000000" points="516.5161,-98.7568 522.5,-107.5 523.2745,-96.9335 516.5161,-98.7568"/>
</g>
<!-- token&#45;&gt;token -->
<g id="edge5" class="edge">
<title>token:_&#45;&gt;token:end</title>
<path fill="none" stroke="#000000" d="M143.667,-33.4713C160.1392,-23.8057 206.3984,-15 322.5,-15 421.8213,-15 470.03,-21.4442 492.2031,-29.3582"/>
<polygon fill="#000000" stroke="#000000" points="490.7778,-32.5549 501.333,-33.4713 493.6531,-26.1726 490.7778,-32.5549"/>
<text text-anchor="middle" x="308.5" y="-3.8" font-family="Times,serif" font-size="14.00" fill="#000000">next()</text>
</g>
</g>
</svg>
