<?xml version="1.0" encoding="UTF-8" standalone="no"?>
<!DOCTYPE svg PUBLIC "-//W3C//DTD SVG 1.1//EN"
 "http://www.w3.org/Graphics/SVG/1.1/DTD/svg11.dtd">
<!-- Generated by graphviz version 2.40.1 (20161225.0304)
 -->
<!-- Title: G Pages: 1 -->
<svg width="566pt" height="45pt"
 viewBox="0.00 0.00 566.00 45.00" xmlns="http://www.w3.org/2000/svg" xmlns:xlink="http://www.w3.org/1999/xlink">
<g id="graph0" class="graph" transform="scale(1 1) rotate(0) translate(4 41)">
<title>G</title>
<polygon fill="#ffffff" stroke="transparent" points="-4,4 -4,-41 562,-41 562,4 -4,4"/>
<!-- json -->
<g id="node1" class="node">
<title>json</title>
<polygon fill="none" stroke="#000000" points="0,-.5 0,-36.5 558,-36.5 558,-.5 0,-.5"/>
<text text-anchor="middle" x="13" y="-14.8" font-family="Times,serif" font-size="14.00" fill="#000000">{</text>
<polyline fill="none" stroke="#000000" points="26,-.5 26,-36.5 "/>
<text text-anchor="middle" x="37.5" y="-14.8" font-family="Times,serif" font-size="14.00" fill="#000000">&quot;</text>
<polyline fill="none" stroke="#000000" points="49,-.5 49,-36.5 "/>
<text text-anchor="middle" x="62" y="-14.8" font-family="Times,serif" font-size="14.00" fill="#000000">n</text>
<polyline fill="none" stroke="#000000" points="75,-.5 75,-36.5 "/>
<text text-anchor="middle" x="87.5" y="-14.8" font-family="Times,serif" font-size="14.00" fill="#000000">a</text>
<polyline fill="none" stroke="#000000" points="100,-.5 100,-36.5 "/>
<text text-anchor="middle" x="115" y="-14.8" font-family="Times,serif" font-size="14.00" fill="#000000">m</text>
<polyline fill="none" stroke="#000000" points="130,-.5 130,-36.5 "/>
<text text-anchor="middle" x="142.5" y="-14.8" font-family="Times,serif" font-size="14.00" fill="#000000">e</text>
<polyline fill="none" stroke="#000000" points="155,-.5 155,-36.5 "/>
<text text-anchor="middle" x="166.5" y="-14.8" font-family="Times,serif" font-size="14.00" fill="#000000">&quot;</text>
<polyline fill="none" stroke="#000000" points="178,-.5 178,-36.5 "/>
<text text-anchor="middle" x="188.5" y="-14.8" font-family="Times,serif" font-size="14.00" fill="#000000">:</text>
<polyline fill="none" stroke="#000000" points="199,-.5 199,-36.5 "/>
<text text-anchor="middle" x="210.5" y="-14.8" font-family="Times,serif" font-size="14.00" fill="#000000">&quot;</text>
<polyline fill="none" stroke="#000000" points="222,-.5 222,-36.5 "/>
<text text-anchor="middle" x="233.5" y="-14.8" font-family="Times,serif" font-size="14.00" fill="#000000">r</text>
<polyline fill="none" stroke="#000000" points="245,-.5 245,-36.5 "/>
<text text-anchor="middle" x="257.5" y="-14.8" font-family="Times,serif" font-size="14.00" fill="#000000">o</text>
<polyline fill="none" stroke="#000000" points="270,-.5 270,-36.5 "/>
<text text-anchor="middle" x="282.5" y="-14.8" font-family="Times,serif" font-size="14.00" fill="#000000">o</text>
<polyline fill="none" stroke="#000000" points="295,-.5 295,-36.5 "/>
<text text-anchor="middle" x="306.5" y="-14.8" font-family="Times,serif" font-size="14.00" fill="#000000">t</text>
<polyline fill="none" stroke="#000000" points="318,-.5 318,-36.5 "/>
<text text-anchor="middle" x="329.5" y="-14.8" font-family="Times,serif" font-size="14.00" fill="#000000">&quot;</text>
<polyline fill="none" stroke="#000000" points="341,-.5 341,-36.5 "/>
<text text-anchor="middle" x="351.5" y="-14.8" font-family="Times,serif" font-size="14.00" fill="#000000">,</text>
<polyline fill="none" stroke="#000000" points="362,-.5 362,-36.5 "/>
<text text-anchor="middle" x="373.5" y="-14.8" font-family="Times,serif" font-size="14.00" fill="#000000">&quot;</text>
<polyline fill="none" stroke="#000000" points="385,-.5 385,-36.5 "/>
<text text-anchor="middle" x="395.5" y="-14.8" font-family="Times,serif" font-size="14.00" fill="#000000">i</text>
<polyline fill="none" stroke="#000000" points="406,-.5 406,-36.5 "/>
<text text-anchor="middle" x="419" y="-14.8" font-family="Times,serif" font-size="14.00" fill="#000000">d</text>
<polyline fill="none" stroke="#000000" points="432,-.5 432,-36.5 "/>
<text text-anchor="middle" x="443.5" y="-14.8" font-family="Times,serif" font-size="14.00" fill="#000000">&quot;</text>
<polyline fill="none" stroke="#000000" points="455,-.5 455,-36.5 "/>
<text text-anchor="middle" x="465.5" y="-14.8" font-family="Times,serif" font-size="14.00" fill="#000000">:</text>
<polyline fill="none" stroke="#000000" points="476,-.5 476,-36.5 "/>
<text text-anchor="middle" x="489" y="-14.8" font-family="Times,serif" font-size="14.00" fill="#000000">0</text>
<polyline fill="none" stroke="#000000" points="502,-.5 502,-36.5 "/>
<text text-anchor="middle" x="515" y="-14.8" font-family="Times,serif" font-size="14.00" fill="#000000">}</text>
<polyline fill="none" stroke="#000000" points="528,-.5 528,-36.5 "/>
<text text-anchor="middle" x="543" y="-14.8" font-family="Times,serif" font-size="14.00" fill="#000000">\0</text>
</g>
</g>
</svg>
